<?xml version="1.0" encoding="UTF-8" standalone="no"?>
<!-- Creator: CorelDRAW -->

<svg
   xmlns:dc="http://purl.org/dc/elements/1.1/"
   xmlns:cc="http://creativecommons.org/ns#"
   xmlns:rdf="http://www.w3.org/1999/02/22-rdf-syntax-ns#"
   xmlns:svg="http://www.w3.org/2000/svg"
   xmlns="http://www.w3.org/2000/svg"
   xmlns:sodipodi="http://sodipodi.sourceforge.net/DTD/sodipodi-0.dtd"
   xmlns:inkscape="http://www.inkscape.org/namespaces/inkscape"
   xml:space="preserve"
   width="95mm"
   height="95mm"
   style="shape-rendering:geometricPrecision; text-rendering:geometricPrecision; image-rendering:optimizeQuality; fill-rule:evenodd; clip-rule:evenodd"
   viewBox="0 0 58.282 58.282"
   version="1.1"
   id="svg3828"
   sodipodi:docname="default-size.svg"
   inkscape:version="0.92.2 2405546, 2018-03-11"><metadata
   id="metadata3832"><rdf:RDF><cc:Work
       rdf:about=""><dc:format>image/svg+xml</dc:format><dc:type
         rdf:resource="http://purl.org/dc/dcmitype/StillImage" /><dc:title></dc:title></cc:Work></rdf:RDF></metadata><sodipodi:namedview
   pagecolor="#ffffff"
   bordercolor="#666666"
   borderopacity="1"
   objecttolerance="10"
   gridtolerance="10"
   guidetolerance="10"
   inkscape:pageopacity="0"
   inkscape:pageshadow="2"
   inkscape:window-width="2880"
   inkscape:window-height="1703"
   id="namedview3830"
   showgrid="false"
   inkscape:zoom="3.8345598"
   inkscape:cx="178.50791"
   inkscape:cy="178.50834"
   inkscape:window-x="0"
   inkscape:window-y="50"
   inkscape:window-maximized="1"
   inkscape:current-layer="Layer_x0020_1" />
 <defs
   id="defs3818">
  <style
   type="text/css"
   id="style3816">
   <![CDATA[
    .fil0 {fill:#1B1C1F}
    .fil1 {fill:#1B1C1F;fill-rule:nonzero}
   ]]>
  </style>
 </defs>
 <g
   id="Layer_x0020_1">
  <metadata
   id="CorelCorpID_0Corel-Layer" />
  <g
   id="_152222920">
   
   
   
  </g>
  <path
   class="fil1"
   d="M29.1409 -2.84495e-015l0.000431898 0 0 0.00678697c8.04997,0.0001234 15.335,3.26003 20.6045,8.52962 5.26928,5.26934 8.52907,12.5539 8.52931,20.6036l0.00678697 0 0 0.000925496 0 0.000431898 -0.00678697 0c-0.0001234,8.05003 -3.26003,15.335 -8.52962,20.6045 -5.26941,5.26928 -12.554,8.52907 -20.6037,8.52931l0 0.00678697 -0.000925496 0 -0.000431898 0 0 -0.00678697c-8.04997,-0.0001234 -15.3349,-3.26003 -20.6044,-8.52962 -5.26928,-5.26941 -8.52907,-12.554 -8.52931,-20.6037l-0.00678697 0 0 -0.000925496 0 -0.000431898 0.00678697 0c0.0001234,-8.04997 3.26003,-15.3349 8.52962,-20.6044 5.26934,-5.26928 12.5539,-8.52907 20.6036,-8.52931l0 -0.00678697 0.000925496 0zm0.000431898 3.47579l0 0.00678697 -0.000431898 0 -0.000925496 0 0 -0.00678697c-7.07918,0.000185099 -13.4939,2.87527 -18.1413,7.52262 -4.64766,4.6476 -7.52287,11.0626 -7.52293,18.1421l0.00678697 0 0 0.000431898 0 0.000925496 -0.00678697 0c0.000185099,7.07924 2.87527,13.4939 7.52262,18.1414 4.6476,4.64766 11.0626,7.52287 18.1421,7.52293l0 -0.00678697 0.000431898 0 0.000925496 0 0 0.00678697c7.07924,-0.000185099 13.4939,-2.87527 18.1414,-7.52262 4.64766,-4.6476 7.52287,-11.0626 7.52293,-18.1422l-0.00678697 0 0 -0.000431898 0 -0.000925496 0.00678697 0c-0.000185099,-7.07918 -2.87527,-13.4939 -7.52262,-18.1413 -4.6476,-4.64766 -11.0626,-7.52287 -18.1422,-7.52293z"
   id="path3825"
   style="fill:#1b1c1f;fill-opacity:0.78500986" />
 <path
   style="fill:#00d4de;fill-opacity:0.80784315;stroke:#00d4de;stroke-width:0.252;stroke-opacity:0.80784315;stroke-miterlimit:4;stroke-dasharray:none"
   d="m 168.94079,335.35625 c -11.34873,-0.88494 -19.93606,-2.24646 -29.20586,-4.63059 -11.21351,-2.88406 -20.37944,-6.28213 -30.59062,-11.34081 C 96.464342,313.10312 85.716926,305.93552 75.028843,296.6328 71.303737,293.39055 63.948704,286.02352 60.489608,282.06988 37.567495,255.87061 24.294975,224.07964 21.783726,189.35971 c -0.327414,-4.52675 -0.329734,-17.38134 -0.0039,-21.77851 0.818651,-11.04882 2.753931,-22.06571 5.657284,-32.20496 14.369692,-50.182668 53.025999,-90.199735 102.73041,-106.346677 17.40908,-5.655503 35.36351,-8.123001 54.22372,-7.452028 47.31518,1.683291 91.07188,24.615935 119.81072,62.792145 18.27282,24.27331 28.92173,53.01454 31.0553,83.81764 0.38843,5.6081 0.16483,20.59558 -0.38348,25.70433 -2.10982,19.65711 -7.00953,36.81725 -15.38421,53.87978 -10.89195,22.19118 -27.54198,42.11517 -47.69881,57.07794 -12.88258,9.56298 -28.34423,17.61335 -43.57531,22.68822 -11.07363,3.68963 -20.99052,5.83233 -33.59362,7.25846 -3.64064,0.41195 -6.48785,0.52714 -14.47704,0.58558 -5.46981,0.04 -10.51159,0.0286 -11.20397,-0.0254 z"
   id="path1466"
   inkscape:connector-curvature="0"
   transform="scale(0.16324738)" /><g
   transform="matrix(1.2243553,0,0,1.2243553,11.753505,11.795779)"
   id="g1196"><g
     id="c116_arrows"><path
       inkscape:connector-curvature="0"
       d="m 21.935,19.368 h 3.235 c 0.878,-0.003 1.589,-0.67 1.589,-1.492 0,-0.824 -0.711,-1.492 -1.589,-1.492 h -6.764 c -0.879,0 -1.59,0.668 -1.591,1.492 10e-4,0.019 0.007,0.041 0.007,0.061 0,0.027 -0.007,0.057 -0.007,0.086 v 6.673 c 0,0.864 0.666,1.566 1.49,1.566 0.822,-0.002 1.492,-0.702 1.492,-1.566 v -3.252 l 6.018,6.02 c 0.582,0.583 1.525,0.583 2.108,0 0.58,-0.582 0.58,-1.526 0,-2.108 z"
       id="path1186" /><path
       inkscape:connector-curvature="0"
       d="M 11.543,17.876 C 11.541,17.052 10.831,16.384 9.951,16.384 H 3.189 c -0.877,0 -1.593,0.668 -1.593,1.492 0,0.822 0.716,1.489 1.593,1.492 h 3.235 l -5.991,5.986 c -0.577,0.582 -0.577,1.526 0,2.108 0.584,0.583 1.527,0.583 2.108,0 l 6.019,-6.02 v 3.252 c 0,0.864 0.67,1.564 1.491,1.566 0.826,0 1.491,-0.702 1.491,-1.566 v -6.673 c 0,-0.029 -0.008,-0.059 -0.008,-0.086 10e-4,-0.018 0.007,-0.04 0.009,-0.059 z"
       id="path1188" /><path
       inkscape:connector-curvature="0"
       d="m 16.815,10.479 c 10e-4,0.824 0.712,1.491 1.591,1.491 h 6.764 c 0.878,0 1.589,-0.667 1.589,-1.491 0,-0.822 -0.711,-1.487 -1.589,-1.489 h -3.235 l 5.989,-5.987 c 0.58,-0.584 0.58,-1.528 0,-2.109 -0.583,-0.582 -1.526,-0.582 -2.108,0 l -6.018,6.02 V 3.662 c 0,-0.867 -0.67,-1.568 -1.492,-1.568 -0.824,0 -1.49,0.701 -1.49,1.568 v 6.671 c 0,0.03 0.007,0.057 0.007,0.087 -0.001,0.02 -0.007,0.036 -0.008,0.059 z"
       id="path1190" /><path
       inkscape:connector-curvature="0"
       d="m 10.052,2.094 c -0.821,0 -1.491,0.701 -1.491,1.568 V 6.913 L 2.542,0.893 c -0.581,-0.582 -1.524,-0.582 -2.108,0 -0.577,0.581 -0.577,1.525 0,2.109 L 6.425,8.989 H 3.189 c -0.876,0.003 -1.592,0.668 -1.592,1.49 0,0.824 0.716,1.491 1.593,1.491 h 6.761 c 0.88,0 1.59,-0.667 1.592,-1.491 -0.002,-0.023 -0.008,-0.039 -0.008,-0.06 0,-0.03 0.008,-0.057 0.008,-0.087 v -6.67 c 0,-0.867 -0.665,-1.568 -1.491,-1.568 z"
       id="path1192" /></g><g
     id="Capa_1_156_" /></g><g
   transform="matrix(0.16324738,0,0,0.16324738,26.332995,24.154735)"
   id="g1198" /><g
   transform="matrix(0.16324738,0,0,0.16324738,26.332995,24.154735)"
   id="g1200" /><g
   transform="matrix(0.16324738,0,0,0.16324738,26.332995,24.154735)"
   id="g1202" /><g
   transform="matrix(0.16324738,0,0,0.16324738,26.332995,24.154735)"
   id="g1204" /><g
   transform="matrix(0.16324738,0,0,0.16324738,26.332995,24.154735)"
   id="g1206" /><g
   transform="matrix(0.16324738,0,0,0.16324738,26.332995,24.154735)"
   id="g1208" /><g
   transform="matrix(0.16324738,0,0,0.16324738,26.332995,24.154735)"
   id="g1210" /><g
   transform="matrix(0.16324738,0,0,0.16324738,26.332995,24.154735)"
   id="g1212" /><g
   transform="matrix(0.16324738,0,0,0.16324738,26.332995,24.154735)"
   id="g1214" /><g
   transform="matrix(0.16324738,0,0,0.16324738,26.332995,24.154735)"
   id="g1216" /><g
   transform="matrix(0.16324738,0,0,0.16324738,26.332995,24.154735)"
   id="g1218" /><g
   transform="matrix(0.16324738,0,0,0.16324738,26.332995,24.154735)"
   id="g1220" /><g
   transform="matrix(0.16324738,0,0,0.16324738,26.332995,24.154735)"
   id="g1222" /><g
   transform="matrix(0.16324738,0,0,0.16324738,26.332995,24.154735)"
   id="g1224" /><g
   transform="matrix(0.16324738,0,0,0.16324738,26.332995,24.154735)"
   id="g1226" /></g>
</svg>
