<?xml version="1.0" encoding="UTF-8" standalone="no"?>
<!-- Creator: CorelDRAW -->

<svg
   xmlns:dc="http://purl.org/dc/elements/1.1/"
   xmlns:cc="http://creativecommons.org/ns#"
   xmlns:rdf="http://www.w3.org/1999/02/22-rdf-syntax-ns#"
   xmlns:svg="http://www.w3.org/2000/svg"
   xmlns="http://www.w3.org/2000/svg"
   xmlns:sodipodi="http://sodipodi.sourceforge.net/DTD/sodipodi-0.dtd"
   xmlns:inkscape="http://www.inkscape.org/namespaces/inkscape"
   xml:space="preserve"
   width="95mm"
   height="95mm"
   style="shape-rendering:geometricPrecision; text-rendering:geometricPrecision; image-rendering:optimizeQuality; fill-rule:evenodd; clip-rule:evenodd"
   viewBox="0 0 58.282 58.282"
   version="1.1"
   id="svg3828"
   sodipodi:docname="door-open.svg"
   inkscape:version="0.92.2 2405546, 2018-03-11"><metadata
   id="metadata3832"><rdf:RDF><cc:Work
       rdf:about=""><dc:format>image/svg+xml</dc:format><dc:type
         rdf:resource="http://purl.org/dc/dcmitype/StillImage" /><dc:title></dc:title></cc:Work></rdf:RDF></metadata><sodipodi:namedview
   pagecolor="#ffffff"
   bordercolor="#666666"
   borderopacity="1"
   objecttolerance="10"
   gridtolerance="10"
   guidetolerance="10"
   inkscape:pageopacity="0"
   inkscape:pageshadow="2"
   inkscape:window-width="3840"
   inkscape:window-height="2071"
   id="namedview3830"
   showgrid="false"
   inkscape:zoom="3.9718058"
   inkscape:cx="59.041157"
   inkscape:cy="168.43724"
   inkscape:window-x="0"
   inkscape:window-y="42"
   inkscape:window-maximized="1"
   inkscape:current-layer="Layer_x0020_1" />
 <defs
   id="defs3818">
  <style
   type="text/css"
   id="style3816">
   <![CDATA[
    .fil0 {fill:#1B1C1F}
    .fil1 {fill:#1B1C1F;fill-rule:nonzero}
   ]]>
  </style>
 </defs>
 <g
   id="Layer_x0020_1">
  <metadata
   id="CorelCorpID_0Corel-Layer" />
  <g
   id="_152222920">
   
   
   
  </g>
  <path
   class="fil1"
   d="M29.1409 -2.84495e-015l0.000431898 0 0 0.00678697c8.04997,0.0001234 15.335,3.26003 20.6045,8.52962 5.26928,5.26934 8.52907,12.5539 8.52931,20.6036l0.00678697 0 0 0.000925496 0 0.000431898 -0.00678697 0c-0.0001234,8.05003 -3.26003,15.335 -8.52962,20.6045 -5.26941,5.26928 -12.554,8.52907 -20.6037,8.52931l0 0.00678697 -0.000925496 0 -0.000431898 0 0 -0.00678697c-8.04997,-0.0001234 -15.3349,-3.26003 -20.6044,-8.52962 -5.26928,-5.26941 -8.52907,-12.554 -8.52931,-20.6037l-0.00678697 0 0 -0.000925496 0 -0.000431898 0.00678697 0c0.0001234,-8.04997 3.26003,-15.3349 8.52962,-20.6044 5.26934,-5.26928 12.5539,-8.52907 20.6036,-8.52931l0 -0.00678697 0.000925496 0zm0.000431898 3.47579l0 0.00678697 -0.000431898 0 -0.000925496 0 0 -0.00678697c-7.07918,0.000185099 -13.4939,2.87527 -18.1413,7.52262 -4.64766,4.6476 -7.52287,11.0626 -7.52293,18.1421l0.00678697 0 0 0.000431898 0 0.000925496 -0.00678697 0c0.000185099,7.07924 2.87527,13.4939 7.52262,18.1414 4.6476,4.64766 11.0626,7.52287 18.1421,7.52293l0 -0.00678697 0.000431898 0 0.000925496 0 0 0.00678697c7.07924,-0.000185099 13.4939,-2.87527 18.1414,-7.52262 4.64766,-4.6476 7.52287,-11.0626 7.52293,-18.1422l-0.00678697 0 0 -0.000431898 0 -0.000925496 0.00678697 0c-0.000185099,-7.07918 -2.87527,-13.4939 -7.52262,-18.1413 -4.6476,-4.64766 -11.0626,-7.52287 -18.1422,-7.52293z"
   id="path3825"
   style="fill:#1b1c1f;fill-opacity:0.78500986;stroke:none" />
 <path
   style="fill:#d48000;fill-opacity:0.80639434;stroke:#d48000;stroke-width:0.25177464;stroke-opacity:0.80784315"
   d="M 168.91561,335.35625 C 145.83157,333.55624 127.29409,328.53298 108.11203,318.87979 92.359229,310.95236 79.028761,301.21266 66.557849,288.51886 58.637995,280.45744 53.405534,274.00008 47.310865,264.76622 33.080706,243.20648 24.92222,220.12066 22.085972,193.38811 c -0.56044,-5.28233 -0.648063,-23.52316 -0.136668,-28.45054 2.262376,-21.79835 7.334322,-39.514 16.434797,-57.40462 23.441104,-46.082843 68.104449,-77.853176 119.075759,-84.702045 14.47841,-1.945421 30.45687,-1.807099 44.81589,0.387964 18.39545,2.812109 36.5443,9.031986 52.58383,18.021241 43.40775,24.327605 72.82354,67.44451 79.3415,116.29678 1.76937,13.26154 1.77161,28.81022 0.006,41.89696 -6.69014,49.58875 -36.47367,92.80023 -80.69524,117.07684 -18.22431,10.00472 -37.49814,15.93462 -59.79648,18.3973 -3.47463,0.38373 -21.45846,0.7088 -24.7998,0.44826 z"
   id="path5272"
   inkscape:connector-curvature="0"
   transform="scale(0.16324738)" /><g
   transform="matrix(0.08978606,0,0,0.08978606,8.4206222,8.1739683)"
   id="g3648" /><g
   transform="matrix(0.08978606,0,0,0.08978606,8.4206222,8.1739683)"
   id="g3650" /><g
   transform="matrix(0.08978606,0,0,0.08978606,8.4206222,8.1739683)"
   id="g3652" /><g
   transform="matrix(0.08978606,0,0,0.08978606,8.4206222,8.1739683)"
   id="g3654" /><g
   transform="matrix(0.08978606,0,0,0.08978606,8.4206222,8.1739683)"
   id="g3656" /><g
   transform="matrix(0.08978606,0,0,0.08978606,8.4206222,8.1739683)"
   id="g3658" /><g
   transform="matrix(0.08978606,0,0,0.08978606,8.4206222,8.1739683)"
   id="g3660" /><g
   transform="matrix(0.08978606,0,0,0.08978606,8.4206222,8.1739683)"
   id="g3662" /><g
   transform="matrix(0.08978606,0,0,0.08978606,8.4206222,8.1739683)"
   id="g3664" /><g
   transform="matrix(0.08978606,0,0,0.08978606,8.4206222,8.1739683)"
   id="g3666" /><g
   transform="matrix(0.08978606,0,0,0.08978606,8.4206222,8.1739683)"
   id="g3668" /><g
   transform="matrix(0.08978606,0,0,0.08978606,8.4206222,8.1739683)"
   id="g3670" /><g
   transform="matrix(0.08978606,0,0,0.08978606,8.4206222,8.1739683)"
   id="g3672" /><g
   transform="matrix(0.08978606,0,0,0.08978606,8.4206222,8.1739683)"
   id="g3674" /><g
   transform="matrix(0.08978606,0,0,0.08978606,8.4206222,8.1739683)"
   id="g3676" /><path
   inkscape:connector-curvature="0"
   d="m 43.303244,14.699214 c -1.951917,-1.951917 -4.546962,-3.026802 -7.307148,-3.026802 -2.760188,0 -5.355234,1.074885 -7.307151,3.026802 -2.874786,2.87459 -3.784531,7.064236 -2.404633,10.839169 L 12.443024,39.379671 c -0.160244,0.160243 -0.260151,0.371421 -0.282092,0.596898 l -0.23919,2.439895 c -0.0286,0.29169 0.07483,0.581031 0.282092,0.788093 l 0.184143,0.184144 14.023471,-14.023473 c 0.382587,-0.382586 1.0026,-0.382586 1.385188,0 0.382586,0.382391 0.382586,1.0026 0,1.384991 l -14.023472,14.023473 1.432593,1.432593 c 0.161811,0.161811 0.375143,0.261913 0.60297,0.282679 l 1.268041,0.116748 c 0.02998,0.0029 0.05994,0.0041 0.08972,0.0041 0.258388,0 0.50796,-0.102252 0.692495,-0.286988 l 2.311583,-2.311778 c 0.183751,-0.183753 0.286793,-0.432737 0.286793,-0.692496 v -0.385526 h 0.385525 c 0.259759,0 0.50894,-0.103044 0.692692,-0.286988 l 0.454873,-0.454834 c 0.183751,-0.183751 0.286793,-0.432735 0.286793,-0.692494 v -1.925274 h 1.925469 c 0.259759,0 0.508941,-0.103044 0.692692,-0.28699 l 1.598126,-1.598126 c 0.183751,-0.183752 0.286793,-0.432736 0.286793,-0.692495 V 36.70374 h 0.292082 c 0.25976,0 0.508941,-0.103044 0.692692,-0.286989 l 1.481568,-1.481568 c 0.183751,-0.183751 0.286793,-0.432736 0.286793,-0.692495 v -0.618642 h 0.618837 c 0.25976,0 0.508941,-0.103044 0.692692,-0.28699 l 1.61948,-1.619283 c 1.131304,0.411972 2.317656,0.620406 3.535155,0.620406 2.759207,0 5.352882,-1.074103 7.303622,-3.024844 4.029207,-4.029011 4.029207,-10.584895 0,-14.614101 z m -2.133905,6.038716 c -0.521477,0.521674 -1.214952,0.809055 -1.952503,0.809055 -0.737553,0 -1.431027,-0.287381 -1.952505,-0.809055 -1.076649,-1.076452 -1.076649,-2.828359 0,-3.904812 0.521478,-0.521673 1.214952,-0.808857 1.952505,-0.808857 0.737551,0 1.431026,0.287184 1.952503,0.808857 1.076649,1.07665 1.076649,2.82836 0,3.904812 z"
   id="path3847"
   style="stroke-width:0.19589685" /><g
   transform="matrix(0.19589686,0,0,0.19589686,11.652188,11.672412)"
   id="g3849" /><g
   transform="matrix(0.19589686,0,0,0.19589686,11.652188,11.672412)"
   id="g3851" /><g
   transform="matrix(0.19589686,0,0,0.19589686,11.652188,11.672412)"
   id="g3853" /><g
   transform="matrix(0.19589686,0,0,0.19589686,11.652188,11.672412)"
   id="g3855" /><g
   transform="matrix(0.19589686,0,0,0.19589686,11.652188,11.672412)"
   id="g3857" /><g
   transform="matrix(0.19589686,0,0,0.19589686,11.652188,11.672412)"
   id="g3859" /><g
   transform="matrix(0.19589686,0,0,0.19589686,11.652188,11.672412)"
   id="g3861" /><g
   transform="matrix(0.19589686,0,0,0.19589686,11.652188,11.672412)"
   id="g3863" /><g
   transform="matrix(0.19589686,0,0,0.19589686,11.652188,11.672412)"
   id="g3865" /><g
   transform="matrix(0.19589686,0,0,0.19589686,11.652188,11.672412)"
   id="g3867" /><g
   transform="matrix(0.19589686,0,0,0.19589686,11.652188,11.672412)"
   id="g3869" /><g
   transform="matrix(0.19589686,0,0,0.19589686,11.652188,11.672412)"
   id="g3871" /><g
   transform="matrix(0.19589686,0,0,0.19589686,11.652188,11.672412)"
   id="g3873" /><g
   transform="matrix(0.19589686,0,0,0.19589686,11.652188,11.672412)"
   id="g3875" /><g
   transform="matrix(0.19589686,0,0,0.19589686,11.652188,11.672412)"
   id="g3877" /></g>
</svg>
