<?xml version="1.0" encoding="UTF-8" standalone="no"?>
<!-- Creator: CorelDRAW -->

<svg
   xmlns:dc="http://purl.org/dc/elements/1.1/"
   xmlns:cc="http://creativecommons.org/ns#"
   xmlns:rdf="http://www.w3.org/1999/02/22-rdf-syntax-ns#"
   xmlns:svg="http://www.w3.org/2000/svg"
   xmlns="http://www.w3.org/2000/svg"
   xmlns:sodipodi="http://sodipodi.sourceforge.net/DTD/sodipodi-0.dtd"
   xmlns:inkscape="http://www.inkscape.org/namespaces/inkscape"
   xml:space="preserve"
   width="95mm"
   height="95mm"
   style="shape-rendering:geometricPrecision; text-rendering:geometricPrecision; image-rendering:optimizeQuality; fill-rule:evenodd; clip-rule:evenodd"
   viewBox="0 0 58.282 58.282"
   version="1.1"
   id="svg3828"
   sodipodi:docname="mic-on.svg"
   inkscape:version="0.92.2 2405546, 2018-03-11"><metadata
   id="metadata3832"><rdf:RDF><cc:Work
       rdf:about=""><dc:format>image/svg+xml</dc:format><dc:type
         rdf:resource="http://purl.org/dc/dcmitype/StillImage" /><dc:title></dc:title></cc:Work></rdf:RDF></metadata><sodipodi:namedview
   pagecolor="#ffffff"
   bordercolor="#666666"
   borderopacity="1"
   objecttolerance="10"
   gridtolerance="10"
   guidetolerance="10"
   inkscape:pageopacity="0"
   inkscape:pageshadow="2"
   inkscape:window-width="3840"
   inkscape:window-height="2071"
   id="namedview3830"
   showgrid="false"
   inkscape:zoom="3.9718058"
   inkscape:cx="57.278731"
   inkscape:cy="148.29527"
   inkscape:window-x="0"
   inkscape:window-y="42"
   inkscape:window-maximized="1"
   inkscape:current-layer="Layer_x0020_1" />
 <defs
   id="defs3818">
  <style
   type="text/css"
   id="style3816">
   <![CDATA[
    .fil0 {fill:#1B1C1F}
    .fil1 {fill:#1B1C1F;fill-rule:nonzero}
   ]]>
  </style>
 </defs>
 <g
   id="Layer_x0020_1">
  <metadata
   id="CorelCorpID_0Corel-Layer" />
  <g
   id="_152222920">
   
   
   
  </g>
  <path
   class="fil1"
   d="M29.1409 -2.84495e-015l0.000431898 0 0 0.00678697c8.04997,0.0001234 15.335,3.26003 20.6045,8.52962 5.26928,5.26934 8.52907,12.5539 8.52931,20.6036l0.00678697 0 0 0.000925496 0 0.000431898 -0.00678697 0c-0.0001234,8.05003 -3.26003,15.335 -8.52962,20.6045 -5.26941,5.26928 -12.554,8.52907 -20.6037,8.52931l0 0.00678697 -0.000925496 0 -0.000431898 0 0 -0.00678697c-8.04997,-0.0001234 -15.3349,-3.26003 -20.6044,-8.52962 -5.26928,-5.26941 -8.52907,-12.554 -8.52931,-20.6037l-0.00678697 0 0 -0.000925496 0 -0.000431898 0.00678697 0c0.0001234,-8.04997 3.26003,-15.3349 8.52962,-20.6044 5.26934,-5.26928 12.5539,-8.52907 20.6036,-8.52931l0 -0.00678697 0.000925496 0zm0.000431898 3.47579l0 0.00678697 -0.000431898 0 -0.000925496 0 0 -0.00678697c-7.07918,0.000185099 -13.4939,2.87527 -18.1413,7.52262 -4.64766,4.6476 -7.52287,11.0626 -7.52293,18.1421l0.00678697 0 0 0.000431898 0 0.000925496 -0.00678697 0c0.000185099,7.07924 2.87527,13.4939 7.52262,18.1414 4.6476,4.64766 11.0626,7.52287 18.1421,7.52293l0 -0.00678697 0.000431898 0 0.000925496 0 0 0.00678697c7.07924,-0.000185099 13.4939,-2.87527 18.1414,-7.52262 4.64766,-4.6476 7.52287,-11.0626 7.52293,-18.1422l-0.00678697 0 0 -0.000431898 0 -0.000925496 0.00678697 0c-0.000185099,-7.07918 -2.87527,-13.4939 -7.52262,-18.1413 -4.6476,-4.64766 -11.0626,-7.52287 -18.1422,-7.52293z"
   id="path3825"
   style="fill:#1b1c1f;fill-opacity:0.78500986" />
 <path
   style="fill:#00d400;fill-opacity:0.80784315;stroke:#00d400;stroke-width:0.252;stroke-opacity:0.80784315;stroke-miterlimit:4;stroke-dasharray:none"
   d="m 168.94079,335.35625 c -11.34873,-0.88494 -19.93606,-2.24646 -29.20586,-4.63059 -11.21351,-2.88406 -20.37944,-6.28213 -30.59062,-11.34081 C 96.464342,313.10312 85.716926,305.93552 75.028843,296.6328 71.303737,293.39055 63.948704,286.02352 60.489608,282.06988 37.567495,255.87061 24.294975,224.07964 21.783726,189.35971 c -0.327414,-4.52675 -0.329734,-17.38134 -0.0039,-21.77851 0.818651,-11.04882 2.753931,-22.06571 5.657284,-32.20496 14.369692,-50.182668 53.025999,-90.199735 102.73041,-106.346677 17.40908,-5.655503 35.36351,-8.123001 54.22372,-7.452028 47.31518,1.683291 91.07188,24.615935 119.81072,62.792145 18.27282,24.27331 28.92173,53.01454 31.0553,83.81764 0.38843,5.6081 0.16483,20.59558 -0.38348,25.70433 -2.10982,19.65711 -7.00953,36.81725 -15.38421,53.87978 -10.89195,22.19118 -27.54198,42.11517 -47.69881,57.07794 -12.88258,9.56298 -28.34423,17.61335 -43.57531,22.68822 -11.07363,3.68963 -20.99052,5.83233 -33.59362,7.25846 -3.64064,0.41195 -6.48785,0.52714 -14.47704,0.58558 -5.46981,0.04 -10.51159,0.0286 -11.20397,-0.0254 z"
   id="path1466"
   inkscape:connector-curvature="0"
   transform="scale(0.16324738)" /><path
   inkscape:connector-curvature="0"
   d="m 29.13961,7.7895053 c -0.103698,0 -0.206488,0.0022 -0.308815,0.00561 -0.0096,3.333e-4 -0.01918,6.6e-4 -0.02876,0.00105 -2.01771,0.07334 -3.768145,0.8085831 -5.250732,2.2048437 -0.366786,0.338318 -0.696886,0.702319 -0.989926,1.092339 -1.0827,1.414271 -1.624567,3.047307 -1.624567,4.899478 v 0.0035 l -0.004,-0.004 v 13.124552 c 0,2.255964 0.803221,4.187208 2.409494,5.79348 1.606183,1.606183 3.537431,2.409844 5.793304,2.409844 0.0014,0 0.0027,10e-7 0.004,0 0.0014,10e-7 0.0027,0 0.004,0 2.255874,0 4.187122,-0.803661 5.793305,-2.409844 1.606272,-1.606272 2.409493,-3.537516 2.409493,-5.79348 V 15.992304 l -0.004,0.004 v -0.0035 c 0,-1.852171 -0.541867,-3.485207 -1.624566,-4.899478 C 35.4248,10.703332 35.0947,10.339331 34.727915,10.001013 33.245329,8.6047522 31.494894,7.8695094 29.477184,7.7961691 c -0.0096,-3.647e-4 -0.01917,-7.15e-4 -0.02876,-0.00105 -0.102327,-0.00341 -0.205117,-0.00561 -0.308814,-0.00561 z M 16.006294,24.195454 c -0.444352,0 -0.828776,0.162402 -1.153891,0.487159 -0.324397,0.324666 -0.486634,0.709193 -0.486634,1.153365 v 3.282101 c 0,3.77685 1.260361,7.062427 3.780835,9.8563 2.521103,2.793961 5.635369,4.39596 9.343712,4.805834 v 3.384163 h -6.562097 c -0.444351,0 -0.829054,0.162578 -1.153541,0.487334 -0.325026,0.324487 -0.487335,0.709279 -0.487335,1.153541 0,0.443723 0.162309,0.828968 0.487335,1.153365 0.324576,0.324576 0.709279,0.48751 1.153541,0.48751 h 8.207007 8.207007 c 0.444261,0 0.828963,-0.162934 1.15354,-0.48751 0.325025,-0.324397 0.487335,-0.709642 0.487335,-1.153365 0,-0.444262 -0.16231,-0.829054 -0.487335,-1.153541 -0.324487,-0.324756 -0.709189,-0.487334 -1.15354,-0.487334 h -6.562099 v -3.384163 c 3.708344,-0.409874 6.822611,-2.011872 9.343713,-4.805834 2.520474,-2.793873 3.780835,-6.07945 3.780835,-9.8563 v -3.282101 c 0,-0.444172 -0.162237,-0.828699 -0.486634,-1.153365 -0.325115,-0.324757 -0.709539,-0.487159 -1.15389,-0.487159 -0.443992,0 -0.828695,0.162402 -1.153541,0.487159 -0.324757,0.324666 -0.486985,0.709193 -0.486985,1.153365 v 3.2814 c 0,3.161726 -1.124024,5.866026 -3.37101,8.113012 -2.246986,2.246986 -4.951731,3.370835 -8.113188,3.370835 -0.0014,0 -0.0028,10e-7 -0.0042,0 -0.0014,10e-7 -0.0028,0 -0.0042,0 -3.161456,0 -5.866202,-1.123849 -8.113188,-3.370835 -2.246938,-2.246986 -3.370962,-4.951286 -3.370962,-8.113012 v -3.2814 c 0,-0.444172 -0.162228,-0.828699 -0.486985,-1.153365 -0.324846,-0.324757 -0.709547,-0.487159 -1.153539,-0.487159 z"
   id="path4520"
   style="stroke-width:0.08978606" /></g>
</svg>
