<?xml version="1.0" encoding="UTF-8" standalone="no"?>
<!-- Creator: CorelDRAW -->

<svg
   xmlns:dc="http://purl.org/dc/elements/1.1/"
   xmlns:cc="http://creativecommons.org/ns#"
   xmlns:rdf="http://www.w3.org/1999/02/22-rdf-syntax-ns#"
   xmlns:svg="http://www.w3.org/2000/svg"
   xmlns="http://www.w3.org/2000/svg"
   xmlns:sodipodi="http://sodipodi.sourceforge.net/DTD/sodipodi-0.dtd"
   xmlns:inkscape="http://www.inkscape.org/namespaces/inkscape"
   xml:space="preserve"
   width="357"
   height="357"
   style="clip-rule:evenodd;fill-rule:evenodd;image-rendering:optimizeQuality;shape-rendering:geometricPrecision;text-rendering:geometricPrecision"
   viewBox="0 0 58.282 58.282"
   version="1.1"
   id="svg3828"
   sodipodi:docname="mic-off.svg"
   inkscape:version="0.92.2 2405546, 2018-03-11"><metadata
   id="metadata3832"><rdf:RDF><cc:Work
       rdf:about=""><dc:format>image/svg+xml</dc:format><dc:type
         rdf:resource="http://purl.org/dc/dcmitype/StillImage" /><dc:title></dc:title></cc:Work></rdf:RDF></metadata><sodipodi:namedview
   pagecolor="#ffffff"
   bordercolor="#666666"
   borderopacity="1"
   objecttolerance="10"
   gridtolerance="10"
   guidetolerance="10"
   inkscape:pageopacity="0"
   inkscape:pageshadow="2"
   inkscape:window-width="3840"
   inkscape:window-height="2071"
   id="namedview3830"
   showgrid="false"
   inkscape:zoom="4.8653221"
   inkscape:cx="194.95112"
   inkscape:cy="178.50822"
   inkscape:window-x="0"
   inkscape:window-y="42"
   inkscape:window-maximized="1"
   inkscape:current-layer="Layer_x0020_1"
   units="px" />
 <defs
   id="defs3818">
  <style
   type="text/css"
   id="style3816">
   <![CDATA[
    .fil0 {fill:#1B1C1F}
    .fil1 {fill:#1B1C1F;fill-rule:nonzero}
   ]]>
  </style>
 </defs>
 <g
   id="Layer_x0020_1">
  <metadata
   id="CorelCorpID_0Corel-Layer" />
  <g
   id="_152222920">
   
   
   
  </g>
  <path
   class="fil1"
   d="m 29.1409,0 h 4.32e-4 v 0.00678697 c 8.04997,1.234e-4 15.335,3.26003003 20.6045,8.52962003 5.26928,5.26934 8.52907,12.5539 8.52931,20.6036 h 0.0068 v 9.25e-4 4.32e-4 h -0.0068 c -1.24e-4,8.05003 -3.26003,15.335 -8.52962,20.6045 -5.26941,5.26928 -12.554,8.52907 -20.6037,8.52931 v 0.0068 h -9.26e-4 -4.31e-4 v -0.0068 c -8.04997,-1.23e-4 -15.3349,-3.26003 -20.6044005,-8.52962 -5.26928,-5.26941 -8.52907,-12.554 -8.52931,-20.6037 H -3.2466e-5 v -9.25e-4 -4.32e-4 H 0.0067545 c 1.234e-4,-8.04997 3.26003,-15.3349 8.52962,-20.6044 C 13.805715,3.266817 21.090275,0.00702697 29.139975,0.00678697 V 0 Z m 4.32e-4,3.47579 v 0.00679 H 29.1409 29.139975 V 3.47579 c -7.07918,1.851e-4 -13.4939,2.87527 -18.1413,7.52262 -4.6476605,4.6476 -7.5228705,11.0626 -7.5229305,18.1421 h 0.00679 v 4.32e-4 9.25e-4 h -0.00679 c 1.851e-4,7.07924 2.87527,13.4939 7.5226205,18.1414 4.6476,4.64766 11.0626,7.52287 18.1421,7.52293 v -0.0068 h 4.31e-4 9.26e-4 v 0.0068 c 7.07924,-1.85e-4 13.4939,-2.87527 18.1414,-7.52262 4.64766,-4.6476 7.52287,-11.0626 7.52293,-18.1422 h -0.0068 v -4.32e-4 -9.25e-4 h 0.0068 c -1.85e-4,-7.07918 -2.87527,-13.4939 -7.52262,-18.1413 -4.6476,-4.64766 -11.0626,-7.52287 -18.1422,-7.52293 z"
   id="path3825"
   style="fill:#1b1c1f;fill-opacity:0.78500989;fill-rule:nonzero;stroke:none"
   inkscape:connector-curvature="0" />
 <path
   style="fill:#d40000;fill-opacity:0.80639433;stroke:#d40000;stroke-width:0.25177464;stroke-opacity:0.80784314"
   d="M 168.91561,335.35625 C 145.83157,333.55624 127.29409,328.53298 108.11203,318.87979 92.359229,310.95236 79.028761,301.21266 66.557849,288.51886 58.637995,280.45744 53.405534,274.00008 47.310865,264.76622 33.080706,243.20648 24.92222,220.12066 22.085972,193.38811 c -0.56044,-5.28233 -0.648063,-23.52316 -0.136668,-28.45054 2.262376,-21.79835 7.334322,-39.514 16.434797,-57.40462 23.441104,-46.082843 68.104449,-77.853176 119.075759,-84.702045 14.47841,-1.945421 30.45687,-1.807099 44.81589,0.387964 18.39545,2.812109 36.5443,9.031986 52.58383,18.021241 43.40775,24.327605 72.82354,67.44451 79.3415,116.29678 1.76937,13.26154 1.77161,28.81022 0.006,41.89696 -6.69014,49.58875 -36.47367,92.80023 -80.69524,117.07684 -18.22431,10.00472 -37.49814,15.93462 -59.79648,18.3973 -3.47463,0.38373 -21.45846,0.7088 -24.7998,0.44826 z"
   id="path5272"
   inkscape:connector-curvature="0"
   transform="scale(0.16324738)" /><g
   transform="matrix(0.08978606,0,0,0.08978606,7.8120809,7.7895767)"
   id="g1578"><g
     id="g1576"><path
       inkscape:connector-curvature="0"
       d="m 113.922,269.803 c -2.856,-11.419 -4.283,-22.172 -4.283,-32.26 v -36.55 c 0,-4.947 -1.809,-9.229 -5.424,-12.847 -3.617,-3.616 -7.898,-5.424 -12.847,-5.424 -4.952,0 -9.235,1.809 -12.851,5.424 -3.617,3.617 -5.426,7.9 -5.426,12.847 v 36.547 c 0,21.129 3.999,41.494 11.993,61.106 z"
       id="path1570" /><path
       inkscape:connector-curvature="0"
       d="m 237.545,328.897 c 25.126,0 46.638,-8.946 64.521,-26.83 17.891,-17.884 26.837,-39.399 26.837,-64.525 V 200.995 L 431.972,97.929 c 1.902,-1.903 2.854,-4.093 2.854,-6.567 0,-2.474 -0.952,-4.664 -2.854,-6.567 L 408.565,61.382 c -1.91,-1.906 -4.097,-2.856 -6.57,-2.856 -2.472,0 -4.661,0.95 -6.564,2.856 L 43.117,413.698 c -1.903,1.902 -2.852,4.093 -2.852,6.563 0,2.478 0.949,4.668 2.852,6.57 l 23.411,23.411 c 1.904,1.903 4.095,2.851 6.567,2.851 2.475,0 4.665,-0.947 6.567,-2.851 l 72.519,-72.519 c 20.933,12.949 43.299,20.656 67.093,23.127 v 37.691 h -73.089 c -4.949,0 -9.235,1.811 -12.847,5.428 -3.618,3.613 -5.43,7.898 -5.43,12.847 0,4.941 1.812,9.233 5.43,12.847 3.612,3.614 7.898,5.428 12.847,5.428 h 182.718 c 4.948,0 9.232,-1.813 12.847,-5.428 3.62,-3.613 5.428,-7.905 5.428,-12.847 0,-4.948 -1.808,-9.233 -5.428,-12.847 -3.614,-3.617 -7.898,-5.428 -12.847,-5.428 H 255.816 V 400.85 c 41.302,-4.565 75.988,-22.408 104.067,-53.526 28.072,-31.117 42.11,-67.711 42.11,-109.776 v -36.554 c 0,-4.947 -1.808,-9.229 -5.421,-12.845 -3.621,-3.617 -7.902,-5.426 -12.851,-5.426 -4.945,0 -9.229,1.809 -12.847,5.426 -3.617,3.616 -5.424,7.898 -5.424,12.845 v 36.547 c 0,35.214 -12.519,65.333 -37.545,90.359 -25.026,25.026 -55.151,37.544 -90.362,37.544 -20.557,0 -40.065,-4.849 -58.529,-14.561 l 27.408,-27.401 c 10.285,3.615 20.657,5.415 31.123,5.415 z"
       id="path1572" /><path
       inkscape:connector-curvature="0"
       d="M 290.223,16.849 C 274.518,5.618 256.959,0 237.545,0 212.42,0 190.91,8.951 173.021,26.84 155.131,44.73 146.186,66.239 146.186,91.365 V 237.542 L 323.483,60.244 C 317.008,42.543 305.927,28.077 290.223,16.849 Z"
       id="path1574" /></g></g><g
   transform="matrix(0.08978606,0,0,0.08978606,7.7959483,7.3262033)"
   id="g1580" /><g
   transform="matrix(0.08978606,0,0,0.08978606,7.7959483,7.3262033)"
   id="g1582" /><g
   transform="matrix(0.08978606,0,0,0.08978606,7.7959483,7.3262033)"
   id="g1584" /><g
   transform="matrix(0.08978606,0,0,0.08978606,7.7959483,7.3262033)"
   id="g1586" /><g
   transform="matrix(0.08978606,0,0,0.08978606,7.7959483,7.3262033)"
   id="g1588" /><g
   transform="matrix(0.08978606,0,0,0.08978606,7.7959483,7.3262033)"
   id="g1590" /><g
   transform="matrix(0.08978606,0,0,0.08978606,7.7959483,7.3262033)"
   id="g1592" /><g
   transform="matrix(0.08978606,0,0,0.08978606,7.7959483,7.3262033)"
   id="g1594" /><g
   transform="matrix(0.08978606,0,0,0.08978606,7.7959483,7.3262033)"
   id="g1596" /><g
   transform="matrix(0.08978606,0,0,0.08978606,7.7959483,7.3262033)"
   id="g1598" /><g
   transform="matrix(0.08978606,0,0,0.08978606,7.7959483,7.3262033)"
   id="g1600" /><g
   transform="matrix(0.08978606,0,0,0.08978606,7.7959483,7.3262033)"
   id="g1602" /><g
   transform="matrix(0.08978606,0,0,0.08978606,7.7959483,7.3262033)"
   id="g1604" /><g
   transform="matrix(0.08978606,0,0,0.08978606,7.7959483,7.3262033)"
   id="g1606" /><g
   transform="matrix(0.08978606,0,0,0.08978606,7.7959483,7.3262033)"
   id="g1608" /></g>
</svg>
