<?xml version="1.0" encoding="UTF-8" standalone="no"?>
<!-- Creator: CorelDRAW -->

<svg
   xmlns:dc="http://purl.org/dc/elements/1.1/"
   xmlns:cc="http://creativecommons.org/ns#"
   xmlns:rdf="http://www.w3.org/1999/02/22-rdf-syntax-ns#"
   xmlns:svg="http://www.w3.org/2000/svg"
   xmlns="http://www.w3.org/2000/svg"
   xmlns:sodipodi="http://sodipodi.sourceforge.net/DTD/sodipodi-0.dtd"
   xmlns:inkscape="http://www.inkscape.org/namespaces/inkscape"
   xml:space="preserve"
   width="95mm"
   height="95mm"
   style="shape-rendering:geometricPrecision; text-rendering:geometricPrecision; image-rendering:optimizeQuality; fill-rule:evenodd; clip-rule:evenodd"
   viewBox="0 0 58.282 58.282"
   version="1.1"
   id="svg3828"
   sodipodi:docname="settings.svg"
   inkscape:version="0.92.2 2405546, 2018-03-11"><metadata
   id="metadata3832"><rdf:RDF><cc:Work
       rdf:about=""><dc:format>image/svg+xml</dc:format><dc:type
         rdf:resource="http://purl.org/dc/dcmitype/StillImage" /><dc:title></dc:title></cc:Work></rdf:RDF></metadata><sodipodi:namedview
   pagecolor="#ffffff"
   bordercolor="#666666"
   borderopacity="1"
   objecttolerance="10"
   gridtolerance="10"
   guidetolerance="10"
   inkscape:pageopacity="0"
   inkscape:pageshadow="2"
   inkscape:window-width="2880"
   inkscape:window-height="1703"
   id="namedview3830"
   showgrid="false"
   inkscape:zoom="3.9718058"
   inkscape:cx="178.13056"
   inkscape:cy="178.50823"
   inkscape:window-x="0"
   inkscape:window-y="50"
   inkscape:window-maximized="1"
   inkscape:current-layer="Layer_x0020_1" />
 <defs
   id="defs3818">
  <style
   type="text/css"
   id="style3816">
   <![CDATA[
    .fil0 {fill:#1B1C1F}
    .fil1 {fill:#1B1C1F;fill-rule:nonzero}
   ]]>
  </style>
 </defs>
 <g
   id="Layer_x0020_1">
  <metadata
   id="CorelCorpID_0Corel-Layer" />
  <g
   id="_152222920">
   
   
   
  </g>
  <path
   class="fil1"
   d="M29.1409 -2.84495e-015l0.000431898 0 0 0.00678697c8.04997,0.0001234 15.335,3.26003 20.6045,8.52962 5.26928,5.26934 8.52907,12.5539 8.52931,20.6036l0.00678697 0 0 0.000925496 0 0.000431898 -0.00678697 0c-0.0001234,8.05003 -3.26003,15.335 -8.52962,20.6045 -5.26941,5.26928 -12.554,8.52907 -20.6037,8.52931l0 0.00678697 -0.000925496 0 -0.000431898 0 0 -0.00678697c-8.04997,-0.0001234 -15.3349,-3.26003 -20.6044,-8.52962 -5.26928,-5.26941 -8.52907,-12.554 -8.52931,-20.6037l-0.00678697 0 0 -0.000925496 0 -0.000431898 0.00678697 0c0.0001234,-8.04997 3.26003,-15.3349 8.52962,-20.6044 5.26934,-5.26928 12.5539,-8.52907 20.6036,-8.52931l0 -0.00678697 0.000925496 0zm0.000431898 3.47579l0 0.00678697 -0.000431898 0 -0.000925496 0 0 -0.00678697c-7.07918,0.000185099 -13.4939,2.87527 -18.1413,7.52262 -4.64766,4.6476 -7.52287,11.0626 -7.52293,18.1421l0.00678697 0 0 0.000431898 0 0.000925496 -0.00678697 0c0.000185099,7.07924 2.87527,13.4939 7.52262,18.1414 4.6476,4.64766 11.0626,7.52287 18.1421,7.52293l0 -0.00678697 0.000431898 0 0.000925496 0 0 0.00678697c7.07924,-0.000185099 13.4939,-2.87527 18.1414,-7.52262 4.64766,-4.6476 7.52287,-11.0626 7.52293,-18.1422l-0.00678697 0 0 -0.000431898 0 -0.000925496 0.00678697 0c-0.000185099,-7.07918 -2.87527,-13.4939 -7.52262,-18.1413 -4.6476,-4.64766 -11.0626,-7.52287 -18.1422,-7.52293z"
   id="path3825"
   style="fill:#1b1c1f;fill-opacity:0.78500986" />
 <path
   style="fill:#00d4de;fill-opacity:0.80784315;stroke:#00d4de;stroke-width:0.252;stroke-opacity:0.80784315;stroke-miterlimit:4;stroke-dasharray:none"
   d="m 168.94079,335.35625 c -11.34873,-0.88494 -19.93606,-2.24646 -29.20586,-4.63059 -11.21351,-2.88406 -20.37944,-6.28213 -30.59062,-11.34081 C 96.464342,313.10312 85.716926,305.93552 75.028843,296.6328 71.303737,293.39055 63.948704,286.02352 60.489608,282.06988 37.567495,255.87061 24.294975,224.07964 21.783726,189.35971 c -0.327414,-4.52675 -0.329734,-17.38134 -0.0039,-21.77851 0.818651,-11.04882 2.753931,-22.06571 5.657284,-32.20496 14.369692,-50.182668 53.025999,-90.199735 102.73041,-106.346677 17.40908,-5.655503 35.36351,-8.123001 54.22372,-7.452028 47.31518,1.683291 91.07188,24.615935 119.81072,62.792145 18.27282,24.27331 28.92173,53.01454 31.0553,83.81764 0.38843,5.6081 0.16483,20.59558 -0.38348,25.70433 -2.10982,19.65711 -7.00953,36.81725 -15.38421,53.87978 -10.89195,22.19118 -27.54198,42.11517 -47.69881,57.07794 -12.88258,9.56298 -28.34423,17.61335 -43.57531,22.68822 -11.07363,3.68963 -20.99052,5.83233 -33.59362,7.25846 -3.64064,0.41195 -6.48785,0.52714 -14.47704,0.58558 -5.46981,0.04 -10.51159,0.0286 -11.20397,-0.0254 z"
   id="path1466"
   inkscape:connector-curvature="0"
   transform="scale(0.16324738)" /><g
   transform="matrix(0.16324738,0,0,0.16324738,7.1824292,7.223933)"
   id="Settings"><g
     id="g974"><path
       inkscape:connector-curvature="0"
       style="clip-rule:evenodd;fill-rule:evenodd"
       d="m 267.92,119.461 c -0.425,-3.778 -4.83,-6.617 -8.639,-6.617 -12.315,0 -23.243,-7.231 -27.826,-18.414 -4.682,-11.454 -1.663,-24.812 7.515,-33.231 2.889,-2.641 3.24,-7.062 0.817,-10.133 -6.303,-8.004 -13.467,-15.234 -21.289,-21.5 -3.063,-2.458 -7.557,-2.116 -10.213,0.825 -8.01,8.871 -22.398,12.168 -33.516,7.529 -11.57,-4.867 -18.866,-16.591 -18.152,-29.176 0.235,-3.953 -2.654,-7.39 -6.595,-7.849 -10.038,-1.161 -20.164,-1.197 -30.232,-0.08 -3.896,0.43 -6.785,3.786 -6.654,7.689 0.438,12.461 -6.946,23.98 -18.401,28.672 -10.985,4.487 -25.272,1.218 -33.266,-7.574 -2.642,-2.896 -7.063,-3.252 -10.141,-0.853 -8.054,6.319 -15.379,13.555 -21.74,21.493 -2.481,3.086 -2.116,7.559 0.802,10.214 9.353,8.47 12.373,21.944 7.514,33.53 -4.639,11.046 -16.109,18.165 -29.24,18.165 -4.261,-0.137 -7.296,2.723 -7.762,6.597 -1.182,10.096 -1.196,20.383 -0.058,30.561 0.422,3.794 4.961,6.608 8.812,6.608 11.702,-0.299 22.937,6.946 27.65,18.415 4.698,11.454 1.678,24.804 -7.514,33.23 -2.875,2.641 -3.24,7.055 -0.817,10.126 6.244,7.953 13.409,15.19 21.259,21.508 3.079,2.481 7.559,2.131 10.228,-0.81 8.04,-8.893 22.427,-12.184 33.501,-7.536 11.599,4.852 18.895,16.575 18.181,29.167 -0.233,3.955 2.67,7.398 6.595,7.85 5.135,0.599 10.301,0.898 15.481,0.898 4.917,0 9.835,-0.27 14.752,-0.817 3.897,-0.43 6.784,-3.786 6.653,-7.696 -0.451,-12.454 6.946,-23.973 18.386,-28.657 11.059,-4.517 25.286,-1.211 33.281,7.572 2.657,2.89 7.047,3.239 10.142,0.848 8.039,-6.304 15.349,-13.534 21.74,-21.494 2.48,-3.079 2.13,-7.559 -0.803,-10.213 -9.353,-8.47 -12.388,-21.946 -7.529,-33.524 4.568,-10.899 15.612,-18.217 27.491,-18.217 l 1.662,0.043 c 3.853,0.313 7.398,-2.655 7.865,-6.588 1.184,-10.105 1.198,-20.383 0.06,-30.561 z m -133.325,60.03 c -24.718,0 -44.824,-20.106 -44.824,-44.824 0,-24.717 20.106,-44.824 44.824,-44.824 24.717,0 44.823,20.107 44.823,44.824 0,24.718 -20.106,44.824 -44.823,44.824 z"
       id="path972" /></g></g><g
   transform="matrix(0.16324738,0,0,0.16324738,7.1824292,7.223933)"
   id="g977" /><g
   transform="matrix(0.16324738,0,0,0.16324738,7.1824292,7.223933)"
   id="g979" /><g
   transform="matrix(0.16324738,0,0,0.16324738,7.1824292,7.223933)"
   id="g981" /><g
   transform="matrix(0.16324738,0,0,0.16324738,7.1824292,7.223933)"
   id="g983" /><g
   transform="matrix(0.16324738,0,0,0.16324738,7.1824292,7.223933)"
   id="g985" /><g
   transform="matrix(0.16324738,0,0,0.16324738,7.1824292,7.223933)"
   id="g987" /><g
   transform="matrix(0.16324738,0,0,0.16324738,7.1824292,7.223933)"
   id="g989" /><g
   transform="matrix(0.16324738,0,0,0.16324738,7.1824292,7.223933)"
   id="g991" /><g
   transform="matrix(0.16324738,0,0,0.16324738,7.1824292,7.223933)"
   id="g993" /><g
   transform="matrix(0.16324738,0,0,0.16324738,7.1824292,7.223933)"
   id="g995" /><g
   transform="matrix(0.16324738,0,0,0.16324738,7.1824292,7.223933)"
   id="g997" /><g
   transform="matrix(0.16324738,0,0,0.16324738,7.1824292,7.223933)"
   id="g999" /><g
   transform="matrix(0.16324738,0,0,0.16324738,7.1824292,7.223933)"
   id="g1001" /><g
   transform="matrix(0.16324738,0,0,0.16324738,7.1824292,7.223933)"
   id="g1003" /><g
   transform="matrix(0.16324738,0,0,0.16324738,7.1824292,7.223933)"
   id="g1005" /></g>
</svg>
