<?xml version="1.0" encoding="UTF-8" standalone="no"?>
<!-- Creator: CorelDRAW -->

<svg
   xmlns:dc="http://purl.org/dc/elements/1.1/"
   xmlns:cc="http://creativecommons.org/ns#"
   xmlns:rdf="http://www.w3.org/1999/02/22-rdf-syntax-ns#"
   xmlns:svg="http://www.w3.org/2000/svg"
   xmlns="http://www.w3.org/2000/svg"
   xmlns:sodipodi="http://sodipodi.sourceforge.net/DTD/sodipodi-0.dtd"
   xmlns:inkscape="http://www.inkscape.org/namespaces/inkscape"
   xml:space="preserve"
   width="95mm"
   height="95mm"
   style="shape-rendering:geometricPrecision; text-rendering:geometricPrecision; image-rendering:optimizeQuality; fill-rule:evenodd; clip-rule:evenodd"
   viewBox="0 0 58.282 58.282"
   version="1.1"
   id="svg3828"
   sodipodi:docname="volume-off.svg"
   inkscape:version="0.92.2 2405546, 2018-03-11"><metadata
   id="metadata3832"><rdf:RDF><cc:Work
       rdf:about=""><dc:format>image/svg+xml</dc:format><dc:type
         rdf:resource="http://purl.org/dc/dcmitype/StillImage" /><dc:title></dc:title></cc:Work></rdf:RDF></metadata><sodipodi:namedview
   pagecolor="#ffffff"
   bordercolor="#666666"
   borderopacity="1"
   objecttolerance="10"
   gridtolerance="10"
   guidetolerance="10"
   inkscape:pageopacity="0"
   inkscape:pageshadow="2"
   inkscape:window-width="3840"
   inkscape:window-height="2071"
   id="namedview3830"
   showgrid="false"
   inkscape:zoom="3.9718058"
   inkscape:cx="59.041157"
   inkscape:cy="168.43724"
   inkscape:window-x="0"
   inkscape:window-y="42"
   inkscape:window-maximized="1"
   inkscape:current-layer="Layer_x0020_1" />
 <defs
   id="defs3818">
  <style
   type="text/css"
   id="style3816">
   <![CDATA[
    .fil0 {fill:#1B1C1F}
    .fil1 {fill:#1B1C1F;fill-rule:nonzero}
   ]]>
  </style>
 </defs>
 <g
   id="Layer_x0020_1">
  <metadata
   id="CorelCorpID_0Corel-Layer" />
  <g
   id="_152222920">
   
   
   
  </g>
  <path
   class="fil1"
   d="M29.1409 -2.84495e-015l0.000431898 0 0 0.00678697c8.04997,0.0001234 15.335,3.26003 20.6045,8.52962 5.26928,5.26934 8.52907,12.5539 8.52931,20.6036l0.00678697 0 0 0.000925496 0 0.000431898 -0.00678697 0c-0.0001234,8.05003 -3.26003,15.335 -8.52962,20.6045 -5.26941,5.26928 -12.554,8.52907 -20.6037,8.52931l0 0.00678697 -0.000925496 0 -0.000431898 0 0 -0.00678697c-8.04997,-0.0001234 -15.3349,-3.26003 -20.6044,-8.52962 -5.26928,-5.26941 -8.52907,-12.554 -8.52931,-20.6037l-0.00678697 0 0 -0.000925496 0 -0.000431898 0.00678697 0c0.0001234,-8.04997 3.26003,-15.3349 8.52962,-20.6044 5.26934,-5.26928 12.5539,-8.52907 20.6036,-8.52931l0 -0.00678697 0.000925496 0zm0.000431898 3.47579l0 0.00678697 -0.000431898 0 -0.000925496 0 0 -0.00678697c-7.07918,0.000185099 -13.4939,2.87527 -18.1413,7.52262 -4.64766,4.6476 -7.52287,11.0626 -7.52293,18.1421l0.00678697 0 0 0.000431898 0 0.000925496 -0.00678697 0c0.000185099,7.07924 2.87527,13.4939 7.52262,18.1414 4.6476,4.64766 11.0626,7.52287 18.1421,7.52293l0 -0.00678697 0.000431898 0 0.000925496 0 0 0.00678697c7.07924,-0.000185099 13.4939,-2.87527 18.1414,-7.52262 4.64766,-4.6476 7.52287,-11.0626 7.52293,-18.1422l-0.00678697 0 0 -0.000431898 0 -0.000925496 0.00678697 0c-0.000185099,-7.07918 -2.87527,-13.4939 -7.52262,-18.1413 -4.6476,-4.64766 -11.0626,-7.52287 -18.1422,-7.52293z"
   id="path3825"
   style="fill:#1b1c1f;fill-opacity:0.78500986;stroke:none" />
 <path
   style="fill:#d40000;fill-opacity:0.80639434;stroke:#d40000;stroke-width:0.25177464;stroke-opacity:0.80784315"
   d="M 168.91561,335.35625 C 145.83157,333.55624 127.29409,328.53298 108.11203,318.87979 92.359229,310.95236 79.028761,301.21266 66.557849,288.51886 58.637995,280.45744 53.405534,274.00008 47.310865,264.76622 33.080706,243.20648 24.92222,220.12066 22.085972,193.38811 c -0.56044,-5.28233 -0.648063,-23.52316 -0.136668,-28.45054 2.262376,-21.79835 7.334322,-39.514 16.434797,-57.40462 23.441104,-46.082843 68.104449,-77.853176 119.075759,-84.702045 14.47841,-1.945421 30.45687,-1.807099 44.81589,0.387964 18.39545,2.812109 36.5443,9.031986 52.58383,18.021241 43.40775,24.327605 72.82354,67.44451 79.3415,116.29678 1.76937,13.26154 1.77161,28.81022 0.006,41.89696 -6.69014,49.58875 -36.47367,92.80023 -80.69524,117.07684 -18.22431,10.00472 -37.49814,15.93462 -59.79648,18.3973 -3.47463,0.38373 -21.45846,0.7088 -24.7998,0.44826 z"
   id="path5272"
   inkscape:connector-curvature="0"
   transform="scale(0.16324738)" /><g
   transform="matrix(0.08978606,0,0,0.08978606,8.4560102,8.4837044)"
   id="g3646"><g
     id="volume-off"><path
       inkscape:connector-curvature="0"
       d="m 345.525,229.5 c 0,-45.9 -25.5,-84.15 -63.75,-102 v 56.1 l 63.75,63.75 z m 63.75,0 c 0,22.95 -5.1,45.9 -12.75,66.3 l 38.25,38.25 c 17.85,-30.6 25.5,-68.85 25.5,-107.1 0,-109.65 -76.5,-201.45 -178.5,-224.4 V 56.1 c 73.95,25.5 127.5,91.8 127.5,173.4 z M 52.278111,18.768655 20.043655,51.003111 121.125,153 H 1.275 v 153 h 102 l 127.5,127.5 V 262.65 l 109.65,109.65 c -17.851,12.75 -35.7,22.95 -58.65,30.601 v 53.55 c 35.7,-7.65 66.3,-22.95 94.35,-45.9 L 409.27189,442.78234 441.04857,408.7178 230.775,198.902 Z M 230.775,25.5 l -53.55,53.55 53.55,53.55 z"
       id="path3643"
       sodipodi:nodetypes="scccssccsccscccccccccccccccccccc" /></g></g><g
   transform="matrix(0.08978606,0,0,0.08978606,8.4206222,8.1739683)"
   id="g3648" /><g
   transform="matrix(0.08978606,0,0,0.08978606,8.4206222,8.1739683)"
   id="g3650" /><g
   transform="matrix(0.08978606,0,0,0.08978606,8.4206222,8.1739683)"
   id="g3652" /><g
   transform="matrix(0.08978606,0,0,0.08978606,8.4206222,8.1739683)"
   id="g3654" /><g
   transform="matrix(0.08978606,0,0,0.08978606,8.4206222,8.1739683)"
   id="g3656" /><g
   transform="matrix(0.08978606,0,0,0.08978606,8.4206222,8.1739683)"
   id="g3658" /><g
   transform="matrix(0.08978606,0,0,0.08978606,8.4206222,8.1739683)"
   id="g3660" /><g
   transform="matrix(0.08978606,0,0,0.08978606,8.4206222,8.1739683)"
   id="g3662" /><g
   transform="matrix(0.08978606,0,0,0.08978606,8.4206222,8.1739683)"
   id="g3664" /><g
   transform="matrix(0.08978606,0,0,0.08978606,8.4206222,8.1739683)"
   id="g3666" /><g
   transform="matrix(0.08978606,0,0,0.08978606,8.4206222,8.1739683)"
   id="g3668" /><g
   transform="matrix(0.08978606,0,0,0.08978606,8.4206222,8.1739683)"
   id="g3670" /><g
   transform="matrix(0.08978606,0,0,0.08978606,8.4206222,8.1739683)"
   id="g3672" /><g
   transform="matrix(0.08978606,0,0,0.08978606,8.4206222,8.1739683)"
   id="g3674" /><g
   transform="matrix(0.08978606,0,0,0.08978606,8.4206222,8.1739683)"
   id="g3676" /></g>
</svg>
