<?xml version="1.0" encoding="UTF-8" standalone="no"?>
<!-- Creator: CorelDRAW -->

<svg
   xmlns:dc="http://purl.org/dc/elements/1.1/"
   xmlns:cc="http://creativecommons.org/ns#"
   xmlns:rdf="http://www.w3.org/1999/02/22-rdf-syntax-ns#"
   xmlns:svg="http://www.w3.org/2000/svg"
   xmlns="http://www.w3.org/2000/svg"
   xmlns:sodipodi="http://sodipodi.sourceforge.net/DTD/sodipodi-0.dtd"
   xmlns:inkscape="http://www.inkscape.org/namespaces/inkscape"
   xml:space="preserve"
   width="95mm"
   height="95mm"
   style="shape-rendering:geometricPrecision; text-rendering:geometricPrecision; image-rendering:optimizeQuality; fill-rule:evenodd; clip-rule:evenodd"
   viewBox="0 0 58.282 58.282"
   version="1.1"
   id="svg3828"
   sodipodi:docname="volume-on.svg"
   inkscape:version="0.92.2 2405546, 2018-03-11"><metadata
   id="metadata3832"><rdf:RDF><cc:Work
       rdf:about=""><dc:format>image/svg+xml</dc:format><dc:type
         rdf:resource="http://purl.org/dc/dcmitype/StillImage" /><dc:title></dc:title></cc:Work></rdf:RDF></metadata><sodipodi:namedview
   pagecolor="#ffffff"
   bordercolor="#666666"
   borderopacity="1"
   objecttolerance="10"
   gridtolerance="10"
   guidetolerance="10"
   inkscape:pageopacity="0"
   inkscape:pageshadow="2"
   inkscape:window-width="3840"
   inkscape:window-height="2071"
   id="namedview3830"
   showgrid="false"
   inkscape:zoom="3.9718058"
   inkscape:cx="57.278731"
   inkscape:cy="148.29527"
   inkscape:window-x="0"
   inkscape:window-y="42"
   inkscape:window-maximized="1"
   inkscape:current-layer="Layer_x0020_1" />
 <defs
   id="defs3818">
  <style
   type="text/css"
   id="style3816">
   <![CDATA[
    .fil0 {fill:#1B1C1F}
    .fil1 {fill:#1B1C1F;fill-rule:nonzero}
   ]]>
  </style>
 </defs>
 <g
   id="Layer_x0020_1">
  <metadata
   id="CorelCorpID_0Corel-Layer" />
  <g
   id="_152222920">
   
   
   
  </g>
  <path
   class="fil1"
   d="M29.1409 -2.84495e-015l0.000431898 0 0 0.00678697c8.04997,0.0001234 15.335,3.26003 20.6045,8.52962 5.26928,5.26934 8.52907,12.5539 8.52931,20.6036l0.00678697 0 0 0.000925496 0 0.000431898 -0.00678697 0c-0.0001234,8.05003 -3.26003,15.335 -8.52962,20.6045 -5.26941,5.26928 -12.554,8.52907 -20.6037,8.52931l0 0.00678697 -0.000925496 0 -0.000431898 0 0 -0.00678697c-8.04997,-0.0001234 -15.3349,-3.26003 -20.6044,-8.52962 -5.26928,-5.26941 -8.52907,-12.554 -8.52931,-20.6037l-0.00678697 0 0 -0.000925496 0 -0.000431898 0.00678697 0c0.0001234,-8.04997 3.26003,-15.3349 8.52962,-20.6044 5.26934,-5.26928 12.5539,-8.52907 20.6036,-8.52931l0 -0.00678697 0.000925496 0zm0.000431898 3.47579l0 0.00678697 -0.000431898 0 -0.000925496 0 0 -0.00678697c-7.07918,0.000185099 -13.4939,2.87527 -18.1413,7.52262 -4.64766,4.6476 -7.52287,11.0626 -7.52293,18.1421l0.00678697 0 0 0.000431898 0 0.000925496 -0.00678697 0c0.000185099,7.07924 2.87527,13.4939 7.52262,18.1414 4.6476,4.64766 11.0626,7.52287 18.1421,7.52293l0 -0.00678697 0.000431898 0 0.000925496 0 0 0.00678697c7.07924,-0.000185099 13.4939,-2.87527 18.1414,-7.52262 4.64766,-4.6476 7.52287,-11.0626 7.52293,-18.1422l-0.00678697 0 0 -0.000431898 0 -0.000925496 0.00678697 0c-0.000185099,-7.07918 -2.87527,-13.4939 -7.52262,-18.1413 -4.6476,-4.64766 -11.0626,-7.52287 -18.1422,-7.52293z"
   id="path3825"
   style="fill:#1b1c1f;fill-opacity:0.78500986" />
 <path
   style="fill:#00d400;fill-opacity:0.80784315;stroke:#00d400;stroke-width:0.252;stroke-opacity:0.80784315;stroke-miterlimit:4;stroke-dasharray:none"
   d="m 168.94079,335.35625 c -11.34873,-0.88494 -19.93606,-2.24646 -29.20586,-4.63059 -11.21351,-2.88406 -20.37944,-6.28213 -30.59062,-11.34081 C 96.464342,313.10312 85.716926,305.93552 75.028843,296.6328 71.303737,293.39055 63.948704,286.02352 60.489608,282.06988 37.567495,255.87061 24.294975,224.07964 21.783726,189.35971 c -0.327414,-4.52675 -0.329734,-17.38134 -0.0039,-21.77851 0.818651,-11.04882 2.753931,-22.06571 5.657284,-32.20496 14.369692,-50.182668 53.025999,-90.199735 102.73041,-106.346677 17.40908,-5.655503 35.36351,-8.123001 54.22372,-7.452028 47.31518,1.683291 91.07188,24.615935 119.81072,62.792145 18.27282,24.27331 28.92173,53.01454 31.0553,83.81764 0.38843,5.6081 0.16483,20.59558 -0.38348,25.70433 -2.10982,19.65711 -7.00953,36.81725 -15.38421,53.87978 -10.89195,22.19118 -27.54198,42.11517 -47.69881,57.07794 -12.88258,9.56298 -28.34423,17.61335 -43.57531,22.68822 -11.07363,3.68963 -20.99052,5.83233 -33.59362,7.25846 -3.64064,0.41195 -6.48785,0.52714 -14.47704,0.58558 -5.46981,0.04 -10.51159,0.0286 -11.20397,-0.0254 z"
   id="path1466"
   inkscape:connector-curvature="0"
   transform="scale(0.16324738)" /><path
   d="M 33.755477,8.7127143 V 13.520652 C 40.395157,15.810196 45.2032,21.763047 45.2032,29.08959 45.053588,35.156556 39.231943,42.342018 33.755477,44.658527 v 4.808114 C 42.179535,45.595317 49.714541,37.635839 49.782289,28.860565 49.901225,19.460401 40.831037,10.470241 33.755477,8.7127143 Z"
   id="path5377"
   inkscape:connector-curvature="0"
   sodipodi:nodetypes="ccccccc"
   style="stroke-width:0.08978606" /><path
   d="m 29.176389,10.773234 -11.4009,11.480691 -9.2050015,0.01403 v 13.69027 h 9.1581785 l 11.447723,11.44772 V 37.47652 32.066032 20.389285 Z"
   id="path5375"
   inkscape:connector-curvature="0"
   sodipodi:nodetypes="cccccccccc"
   style="stroke-width:0.08978606" /><path
   d="m 33.755477,19.931412 v 5.036962 c 2.176621,0.950738 2.052456,4.074335 2.052456,4.074335 0,0 0.124165,3.211395 -2.052456,4.162133 v 5.036963 c 3.432652,-1.601904 5.721467,-5.0337 5.723686,-9.152215 h 1.8e-4 v -0.003 -0.003 h -1.8e-4 c -0.0022,-4.118517 -2.291033,-7.550312 -5.723686,-9.152216 z"
   id="path5373"
   inkscape:connector-curvature="0"
   sodipodi:nodetypes="ccccccccccc"
   style="stroke-width:0.08978606" /></g>
</svg>
